{
    "asset" : {
        "generator" : "Khronos glTF Blender I/O v3.3.32",
        "version" : "2.0"
    },
    "extensionsUsed" : [
        "KHR_materials_variants"
    ],
    "extensionsRequired" : [
        "KHR_materials_variants"
    ],
    "extensions" : {
        "KHR_materials_variants" : {
            "variants" : [
                {
                    "name" : 0
                }
            ]
        }
    },
    "scene" : 0,
    "scenes" : [
        {
            "name" : "Scene",
            "nodes" : [
                0
            ]
        }
    ],
    "nodes" : [
        {
            "mesh" : 0,
            "name" : "Torus",
            "scale" : [
                1.0978362560272217,
                1.0978362560272217,
                1.0978362560272217
            ]
        }
    ],
    "materials" : [
        {
            "doubleSided" : true,
            "name" : "Material.003",
            "pbrMetallicRoughness" : {
                "baseColorFactor" : [
                    0.7808887958526611,
                    0.8000000715255737,
                    0,
                    1
                ],
                "metallicFactor" : 0,
                "roughnessFactor" : 0.5
            }
        },
        {
            "doubleSided" : true,
            "name" : "Material.002",
            "pbrMetallicRoughness" : {
                "metallicFactor" : 0,
                "roughnessFactor" : 0.5
            }
        }
    ],
    "meshes" : [
        {
            "name" : "Torus",
            "primitives" : [
                {
                    "attributes" : {
                        "POSITION" : 0,
                        "NORMAL" : 1,
                        "TEXCOORD_0" : 2
                    },
                    "extensions" : {
                        "KHR_materials_variants" : {
                            "mappings" : [
                                {
                                    "material" : 0,
                                    "variants" : [
                                        0
                                    ]
                                }
                            ]
                        }
                    },
                    "indices" : 3,
                    "material" : 0
                },
                {
                    "attributes" : {
                        "POSITION" : 4,
                        "NORMAL" : 5,
                        "TEXCOORD_0" : 6
                    },
                    "extensions" : {
                        "KHR_materials_variants" : {
                            "mappings" : [
                                {
                                    "material" : 1,
                                    "variants" : [
                                        0
                                    ]
                                }
                            ]
                        }
                    },
                    "indices" : 7,
                    "material" : 1
                }
            ]
        }
    ],
    "accessors" : [
        {
            "bufferView" : 0,
            "componentType" : 5126,
            "count" : 637,
            "max" : [
                1.25,
                0.25,
                1.25
            ],
            "min" : [
                -1.25,
                -0.25,
                -1.25
            ],
            "type" : "VEC3"
        },
        {
            "bufferView" : 1,
            "componentType" : 5126,
            "count" : 637,
            "type" : "VEC3"
        },
        {
            "bufferView" : 2,
            "componentType" : 5126,
            "count" : 637,
            "type" : "VEC2"
        },
        {
            "bufferView" : 3,
            "componentType" : 5123,
            "count" : 3456,
            "type" : "SCALAR"
        },
        {
            "bufferView" : 4,
            "componentType" : 5126,
            "count" : 596,
            "max" : [
                0.9108823537826538,
                0.9108826518058777,
                0.9108820557594299
            ],
            "min" : [
                -0.910881757736206,
                -0.9108826518058777,
                -0.9108826518058777
            ],
            "type" : "VEC3"
        },
        {
            "bufferView" : 5,
            "componentType" : 5126,
            "count" : 596,
            "type" : "VEC3"
        },
        {
            "bufferView" : 6,
            "componentType" : 5126,
            "count" : 596,
            "type" : "VEC2"
        },
        {
            "bufferView" : 7,
            "componentType" : 5123,
            "count" : 2880,
            "type" : "SCALAR"
        }
    ],
    "bufferViews" : [
        {
            "buffer" : 0,
            "byteLength" : 7644,
            "byteOffset" : 0,
            "target" : 34962
        },
        {
            "buffer" : 0,
            "byteLength" : 7644,
            "byteOffset" : 7644,
            "target" : 34962
        },
        {
            "buffer" : 0,
            "byteLength" : 5096,
            "byteOffset" : 15288,
            "target" : 34962
        },
        {
            "buffer" : 0,
            "byteLength" : 6912,
            "byteOffset" : 20384,
            "target" : 34963
        },
        {
            "buffer" : 0,
            "byteLength" : 7152,
            "byteOffset" : 27296,
            "target" : 34962
        },
        {
            "buffer" : 0,
            "byteLength" : 7152,
            "byteOffset" : 34448,
            "target" : 34962
        },
        {
            "buffer" : 0,
            "byteLength" : 4768,
            "byteOffset" : 41600,
            "target" : 34962
        },
        {
            "buffer" : 0,
            "byteLength" : 5760,
            "byteOffset" : 46368,
            "target" : 34963
        }
    ],
    "buffers" : [
        {
            "byteLength" : 52128,
            "uri" : "data:application/octet-stream;base64,"
        }
    ]
}
